<svg width="20" height="20" viewBox="0 0 20 20" fill="none" xmlns="http://www.w3.org/2000/svg">
<g clip-path="url(#clip0)">
<path d="M7.24139 7.24603C7.5001 7.24603 7.70978 7.45571 7.70978 7.71442V16.5669C7.70978 16.8254 7.5001 17.0353 7.24139 17.0353C6.98269 17.0353 6.77301 16.8254 6.77301 16.5669V7.71442C6.77301 7.45571 6.98269 7.24603 7.24139 7.24603Z" fill="#FF0000"/>
<path d="M12.768 7.24603C13.0267 7.24603 13.2364 7.45571 13.2364 7.71442V16.5669C13.2364 16.8254 13.0267 17.0353 12.768 17.0353C12.5093 17.0353 12.2997 16.8254 12.2997 16.5669V7.71442C12.2997 7.45571 12.5093 7.24603 12.768 7.24603Z" fill="#FF0000"/>
<path d="M16.7965 5.95407V17.494C16.7965 18.1761 16.5464 18.8167 16.1095 19.2763C15.6746 19.7371 15.0694 19.9988 14.4359 19.9999H5.574C4.9404 19.9988 4.33516 19.7371 3.90044 19.2763C3.46353 18.8167 3.21342 18.1761 3.21342 17.494V5.95407C2.3449 5.72354 1.78211 4.88448 1.89829 3.99327C2.01465 3.10224 2.77376 2.43571 3.67247 2.43553H6.07055V1.85005C6.06781 1.3577 6.26248 0.884926 6.61103 0.537116C6.95957 0.189488 7.43307 -0.00408569 7.92542 -6.05287e-05H12.0845C12.5769 -0.00408569 13.0504 0.189488 13.3989 0.537116C13.7475 0.884926 13.9421 1.3577 13.9394 1.85005V2.43553H16.3375C17.2362 2.43571 17.9953 3.10224 18.1116 3.99327C18.2278 4.88448 17.665 5.72354 16.7965 5.95407ZM5.574 19.0631H14.4359C15.2368 19.0631 15.8598 18.3752 15.8598 17.494V5.99524H4.15019V17.494C4.15019 18.3752 4.77317 19.0631 5.574 19.0631ZM13.0026 1.85005C13.0057 1.60616 12.9099 1.37142 12.7368 1.19926C12.5639 1.02709 12.3286 0.932497 12.0845 0.936705H7.92542C7.68135 0.932497 7.44606 1.02709 7.27316 1.19926C7.10008 1.37124 7.00421 1.60616 7.00732 1.85005V2.43553H13.0026V1.85005ZM16.3375 3.37229H3.67247C3.20683 3.37229 2.82938 3.74975 2.82938 4.21538C2.82938 4.68102 3.20683 5.05847 3.67247 5.05847H16.3375C16.8031 5.05847 17.1806 4.68102 17.1806 4.21538C17.1806 3.74975 16.8031 3.37229 16.3375 3.37229Z" fill="#FF0000"/>
<path d="M10.0048 7.24603C10.2635 7.24603 10.4732 7.45571 10.4732 7.71442V16.5669C10.4732 16.8254 10.2635 17.0353 10.0048 17.0353C9.74609 17.0353 9.53642 16.8254 9.53642 16.5669V7.71442C9.53642 7.45571 9.74609 7.24603 10.0048 7.24603Z" fill="#FF0000"/>
</g>
<defs>
<clipPath id="clip0">
<rect width="20" height="20" fill="white" transform="matrix(-1 0 0 1 20 0)"/>
</clipPath>
</defs>
</svg>
