<svg width="30" height="30" viewBox="0 0 30 30" fill="none" xmlns="http://www.w3.org/2000/svg">
<g clip-path="url(#clip0)">
<path d="M21.4453 18.75H20.0515L18.2227 16.9211V16.6644C19.9792 15.5798 21.1523 13.6373 21.1523 11.4258V7.87523C22.9088 6.79072 24.0819 4.84834 24.082 2.63689C24.082 1.93254 23.8078 1.27043 23.3098 0.772383C22.8118 0.274336 22.1497 0 21.4453 0H13.2422C10.819 0 8.84766 1.97139 8.84766 4.39453V11.4258C8.84766 13.6373 10.0208 15.5798 11.7773 16.6644V16.9211L9.94846 18.75H8.55469C5.80846 18.75 3.57422 20.9842 3.57422 23.7305V29.1211C3.57422 29.6065 3.96773 30 4.45312 30H25.5469C26.0323 30 26.4258 29.6065 26.4258 29.1211V23.7305C26.4258 20.9842 24.1915 18.75 21.4453 18.75ZM18.6658 19.8502L17.5323 22.8729L16.1038 21.7302L17.5845 18.7689L18.6658 19.8502ZM10.6055 4.39453C10.6055 2.94064 11.7883 1.75781 13.2422 1.75781H21.4453C21.6801 1.75781 21.9008 1.84928 22.0668 2.01527C22.2328 2.18127 22.3242 2.40199 22.3242 2.63678C22.3241 5.05986 20.3527 7.03125 17.9295 7.03125H17.6204C16.3391 7.03125 15.1872 6.31934 14.6142 5.17336C14.4653 4.87559 14.1611 4.6875 13.8281 4.6875C13.4952 4.6875 13.1909 4.87559 13.042 5.17336C12.5554 6.14643 11.6515 6.80654 10.6055 6.98361V4.39453ZM10.6055 11.4258V8.75771C11.8589 8.62008 12.9981 8.03168 13.8281 7.11258C14.7823 8.16926 16.145 8.78906 17.6204 8.78906H17.9295C18.4342 8.78906 18.9248 8.72754 19.3945 8.61234V11.4258C19.3945 13.8489 17.4231 15.8203 15 15.8203C12.5769 15.8203 10.6055 13.8489 10.6055 11.4258ZM12.4155 18.7689L13.8962 21.7302L12.4677 22.8729L11.3342 19.8502L12.4155 18.7689ZM14.1211 28.2422H5.33203V23.7305C5.33203 21.9535 6.77771 20.5078 8.55469 20.5078H9.70342L11.2474 24.625C11.4366 25.173 12.1749 25.3775 12.6194 25.0027L14.1211 23.8013V28.2422ZM13.718 17.4434C14.1317 17.5314 14.5605 17.5781 15 17.5781C15.4395 17.5781 15.8683 17.5314 16.282 17.4434L15 20.0074L13.718 17.4434ZM24.668 28.2422H15.8789V23.8013L17.3806 25.0027C17.8251 25.3775 18.5634 25.1729 18.7526 24.625L20.2966 20.5078H21.4453C23.2223 20.5078 24.668 21.9535 24.668 23.7305V28.2422Z" fill="#2D3850"/>
</g>
<defs>
<clipPath id="clip0">
<rect width="30" height="30" fill="white"/>
</clipPath>
</defs>
</svg>
