<svg width="30" height="30" viewBox="0 0 30 30" fill="none" xmlns="http://www.w3.org/2000/svg">
<path d="M24.4852 27.7021H5.07349V29.908H24.4852V27.7021Z" fill="#2D3850"/>
<path d="M18.2721 9.94482H11.4706C10.8614 9.94482 10.3677 10.4386 10.3677 11.0478C10.3677 11.657 10.8614 12.1508 11.4706 12.1508H18.2721C18.8813 12.1508 19.3751 11.657 19.3751 11.0478C19.3751 10.4386 18.8813 9.94482 18.2721 9.94482Z" fill="#2D3850"/>
<path d="M23.4192 15.092H11.4706C10.8614 15.092 10.3677 15.5858 10.3677 16.195C10.3677 16.8042 10.8614 17.298 11.4706 17.298H23.4192C24.0284 17.298 24.5221 16.8042 24.5221 16.195C24.5221 15.5858 24.0284 15.092 23.4192 15.092Z" fill="#2D3850"/>
<path d="M29.35 0.226123C28.954 0.0481738 28.4912 0.118428 28.1662 0.405537L25.0776 3.13788L21.9853 0.372783C21.5665 -0.00186525 20.9335 -0.00186525 20.5147 0.372783L17.4265 3.13454L14.3379 0.372783C13.9191 -0.00186525 13.2864 -0.00186525 12.8677 0.372783L9.77537 3.13788L6.68678 0.405537C6.36217 0.118779 5.89893 0.0485254 5.50295 0.226123C5.10738 0.404424 4.85297 0.797822 4.85297 1.23165V20.864H1.10297C0.493769 20.864 0 21.3577 0 21.9669V24.6508C0 27.5496 2.35846 29.9081 5.25732 29.9081V27.7022C3.57463 27.7022 2.20588 26.3331 2.20588 24.6508V23.0699H19.4853V24.6508C19.4853 27.5496 21.8438 29.9081 24.7426 29.9081C27.6415 29.9081 29.9999 27.5497 29.9999 24.6508V1.23159C30 0.797764 29.7456 0.404424 29.35 0.226123ZM27.7941 24.6508C27.7941 26.3331 26.425 27.7022 24.7427 27.7022C23.0603 27.7022 21.6912 26.3331 21.6912 24.6508V21.9669C21.6912 21.3577 21.1975 20.864 20.5883 20.864H7.05885V3.67976L9.04893 5.44044C9.46805 5.81105 10.0982 5.80917 10.5147 5.4364L13.6029 2.67464L16.6912 5.43605C17.11 5.81069 17.743 5.81069 18.1618 5.43605L21.2504 2.67429L24.3386 5.43605C24.7555 5.80882 25.3857 5.81028 25.8044 5.44009L27.7941 3.67981V24.6508Z" fill="#2D3850"/>
</svg>
