<svg width="28" height="28" viewBox="0 0 28 28" fill="none" xmlns="http://www.w3.org/2000/svg">
<g clip-path="url(#clip0)">
<path d="M14 28C21.732 28 28 21.732 28 14C28 6.26801 21.732 0 14 0C6.26801 0 0 6.26801 0 14C0 21.732 6.26801 28 14 28Z" fill="#27273D"/>
<path d="M27.133 9.13937H0.867188C2.84414 3.80297 7.97711 0 14.0004 0C20.0237 0 25.1566 3.80297 27.133 9.13937Z" fill="#E88032"/>
<path d="M27.133 18.8599H0.867132C-0.291322 15.7232 -0.291322 12.2759 0.867132 9.13916H27.133C27.3279 9.66491 27.4906 10.202 27.6203 10.7475C28.2592 13.4407 28.0897 16.2625 27.133 18.8599Z" fill="white"/>
<path d="M14.0004 27.9998C11.1399 27.9999 8.34791 27.124 6.00001 25.49C3.65211 23.856 1.86087 21.5422 0.867188 18.8599H27.133C26.9296 19.4106 26.6913 19.9478 26.4194 20.4682C25.2362 22.7394 23.4527 24.6425 21.263 25.9705C19.0733 27.2984 16.5613 28.0003 14.0004 27.9998Z" fill="#00B564"/>
<path d="M15.8324 0.118672C10.6163 0.800625 6.30367 4.35312 4.53125 9.14211H0.867188C2.84414 3.80297 7.97711 1.69128e-07 14.0004 1.69128e-07C14.613 -9.44903e-05 15.225 0.039546 15.8324 0.118672Z" fill="#D8712B"/>
<path d="M3.6644 13.9998C3.66247 15.6584 3.95599 17.3042 4.53119 18.8599H0.867132C-0.291322 15.7232 -0.291322 12.2759 0.867132 9.13916H4.53119C4.33743 9.66498 4.17581 10.2021 4.04721 10.7475C3.7929 11.8129 3.66442 12.9045 3.6644 13.9998Z" fill="#E2E2E2"/>
<path d="M15.8324 27.8811C15.225 27.9603 14.613 27.9999 14.0004 27.9998C11.1399 27.9999 8.34792 27.124 6.00001 25.49C3.65211 23.856 1.86087 21.5422 0.867188 18.8599H4.53125C5.41608 21.2496 6.936 23.3527 8.92738 24.9427C10.9187 26.5327 13.3061 27.5494 15.8324 27.8833V27.8811Z" fill="#049B53"/>
<path d="M22.3161 6.16502C22.8078 6.16502 23.2064 5.76642 23.2064 5.27471C23.2064 4.78301 22.8078 4.3844 22.3161 4.3844C21.8244 4.3844 21.4258 4.78301 21.4258 5.27471C21.4258 5.76642 21.8244 6.16502 22.3161 6.16502Z" fill="#EF9050"/>
<path d="M21.0058 4.59399C21.354 4.59399 21.6363 4.31168 21.6363 3.96344C21.6363 3.61519 21.354 3.33289 21.0058 3.33289C20.6575 3.33289 20.3752 3.61519 20.3752 3.96344C20.3752 4.31168 20.6575 4.59399 21.0058 4.59399Z" fill="#EF9050"/>
<path d="M14.0007 18.3675C16.4127 18.3675 18.368 16.4122 18.368 14.0002C18.368 11.5881 16.4127 9.63281 14.0007 9.63281C11.5886 9.63281 9.6333 11.5881 9.6333 14.0002C9.6333 16.4122 11.5886 18.3675 14.0007 18.3675Z" fill="#3E436D"/>
<path d="M17.4376 13.6448L17.2337 13.5994C17.2337 13.583 17.2298 13.5666 17.2276 13.5507L17.4125 13.4534C17.4438 13.4372 17.4686 13.4108 17.4829 13.3786C17.4971 13.3463 17.4999 13.3102 17.4907 13.2762L17.3851 12.8813C17.376 12.8473 17.3555 12.8173 17.3271 12.7965C17.2986 12.7756 17.264 12.765 17.2287 12.7665L17.0204 12.7752C17.0144 12.7599 17.0083 12.7446 17.0018 12.7293L17.1549 12.5887C17.181 12.565 17.1981 12.5331 17.2035 12.4983C17.2088 12.4634 17.2021 12.4278 17.1844 12.3973L16.9799 12.043C16.9623 12.0124 16.9348 11.9889 16.902 11.9761C16.8692 11.9634 16.833 11.9623 16.7994 11.973L16.6004 12.0353C16.5905 12.0222 16.5801 12.0096 16.5703 11.997L16.6824 11.8204C16.7013 11.7906 16.7095 11.7552 16.7056 11.7201C16.7018 11.685 16.686 11.6523 16.6611 11.6273L16.3723 11.3386C16.3474 11.3136 16.3146 11.2979 16.2795 11.294C16.2445 11.2901 16.2091 11.2983 16.1793 11.3173L16.0026 11.4299L15.9644 11.3998L16.0267 11.2008C16.0374 11.1672 16.0363 11.131 16.0235 11.0982C16.0108 11.0654 15.9872 11.0379 15.9567 11.0203L15.6023 10.8158C15.5718 10.7981 15.5362 10.7914 15.5014 10.7967C15.4666 10.8021 15.4346 10.8193 15.4109 10.8453L15.2704 10.9984L15.2244 10.9798L15.2332 10.7715C15.2346 10.7362 15.2241 10.7016 15.2032 10.6731C15.1823 10.6447 15.1524 10.6242 15.1183 10.6151L14.7235 10.5095C14.6895 10.5005 14.6535 10.5033 14.6214 10.5175C14.5893 10.5318 14.563 10.5565 14.5469 10.5877L14.4495 10.7737L14.4008 10.7677L14.3554 10.5637C14.3479 10.5292 14.3289 10.4984 14.3014 10.4763C14.274 10.4542 14.2398 10.4422 14.2045 10.4423H13.7954C13.7602 10.4422 13.726 10.4542 13.6985 10.4763C13.6711 10.4984 13.652 10.5292 13.6445 10.5637L13.5991 10.7677L13.5504 10.7737L13.4531 10.5877C13.4369 10.5564 13.4106 10.5316 13.3783 10.5173C13.3461 10.5031 13.3099 10.5004 13.2759 10.5095L12.8811 10.6151C12.847 10.6242 12.8171 10.6447 12.7962 10.6731C12.7753 10.7016 12.7648 10.7362 12.7662 10.7715L12.775 10.9798L12.729 10.9984L12.5885 10.8453C12.5648 10.8193 12.5328 10.8021 12.498 10.7967C12.4632 10.7914 12.4276 10.7981 12.3971 10.8158L12.0427 11.0203C12.0122 11.0379 11.9886 11.0654 11.9759 11.0982C11.9631 11.131 11.962 11.1672 11.9727 11.2008L12.0351 11.3998L11.9968 11.4299L11.8207 11.3205C11.7909 11.3016 11.7555 11.2934 11.7204 11.2973C11.6853 11.3012 11.6526 11.3169 11.6276 11.3419L11.3389 11.6306C11.3139 11.6556 11.2982 11.6883 11.2943 11.7234C11.2904 11.7585 11.2986 11.7939 11.3176 11.8237L11.4297 12.0003C11.4198 12.0129 11.4094 12.0255 11.3996 12.0386L11.2005 11.9762C11.167 11.9656 11.1308 11.9667 11.0979 11.9794C11.0651 11.9921 11.0376 12.0157 11.0201 12.0462L10.8155 12.4006C10.7978 12.4311 10.7911 12.4667 10.7965 12.5015C10.8019 12.5364 10.819 12.5683 10.8451 12.592L10.9982 12.7326C10.9916 12.7479 10.9856 12.7632 10.9796 12.7785L10.7712 12.7698C10.736 12.7683 10.7013 12.7789 10.6729 12.7998C10.6445 12.8206 10.624 12.8505 10.6148 12.8846L10.5093 13.2794C10.5009 13.313 10.5041 13.3484 10.5183 13.3799C10.5325 13.4115 10.5568 13.4373 10.5875 13.4534L10.7723 13.5502C10.7723 13.566 10.7685 13.5824 10.7663 13.5988L10.5623 13.6442C10.5279 13.6517 10.4971 13.6708 10.475 13.6982C10.4529 13.7257 10.4409 13.7599 10.4409 13.7952V14.2042C10.4409 14.2395 10.4529 14.2737 10.475 14.3011C10.4971 14.3286 10.5279 14.3477 10.5623 14.3552L10.7663 14.4005C10.7663 14.4169 10.7701 14.4334 10.7723 14.4492L10.5875 14.5471C10.5562 14.5633 10.5313 14.5897 10.5171 14.6219C10.5029 14.6541 10.5001 14.6903 10.5093 14.7243L10.6148 15.1191C10.624 15.1532 10.6445 15.1831 10.6729 15.204C10.7013 15.2249 10.736 15.2354 10.7712 15.234L10.9796 15.2252C10.9856 15.2405 10.9916 15.2559 10.9982 15.2712L10.8451 15.4117C10.819 15.4354 10.8019 15.4674 10.7965 15.5022C10.7911 15.537 10.7978 15.5726 10.8155 15.6031L11.0201 15.9575C11.0376 15.988 11.0651 16.0116 11.0979 16.0243C11.1308 16.0371 11.167 16.0382 11.2005 16.0275L11.3996 15.9652C11.4094 15.9783 11.4198 15.9909 11.4297 16.0034L11.3203 16.1795C11.3014 16.2093 11.2932 16.2447 11.2971 16.2798C11.3009 16.3149 11.3167 16.3476 11.3416 16.3726L11.6304 16.6613C11.6553 16.6863 11.6881 16.702 11.7231 16.7059C11.7582 16.7098 11.7936 16.7016 11.8234 16.6827L12.0001 16.5705L12.0383 16.6006L11.976 16.7997C11.9653 16.8332 11.9664 16.8694 11.9792 16.9023C11.9919 16.9351 12.0155 16.9626 12.046 16.9802L12.4004 17.1847C12.4308 17.2024 12.4665 17.2091 12.5013 17.2037C12.5361 17.1983 12.568 17.1812 12.5918 17.1552L12.7323 17.002L12.7783 17.0206L12.7695 17.229C12.7681 17.2642 12.7786 17.2989 12.7995 17.3273C12.8204 17.3558 12.8503 17.3762 12.8844 17.3854L13.2792 17.4909C13.3128 17.4993 13.3481 17.4961 13.3797 17.4819C13.4112 17.4677 13.4371 17.4434 13.4531 17.4127L13.5499 17.2279L13.5986 17.2339L13.644 17.4379C13.6515 17.4723 13.6705 17.5032 13.698 17.5252C13.7255 17.5473 13.7597 17.5593 13.7949 17.5593H14.204C14.2392 17.5593 14.2734 17.5473 14.3009 17.5252C14.3283 17.5032 14.3474 17.4723 14.3549 17.4379L14.4003 17.2339L14.449 17.2279L14.5469 17.4127C14.563 17.444 14.5894 17.4689 14.6216 17.4831C14.6539 17.4973 14.69 17.5001 14.724 17.4909L15.1189 17.3854C15.1529 17.3762 15.1829 17.3558 15.2037 17.3273C15.2246 17.2989 15.2352 17.2642 15.2337 17.229L15.225 17.0206L15.2709 17.002L15.4115 17.1552C15.4352 17.1812 15.4671 17.1983 15.502 17.2037C15.5368 17.2091 15.5724 17.2024 15.6029 17.1847L15.9572 16.9802C15.9878 16.9626 16.0114 16.9351 16.0241 16.9023C16.0368 16.8694 16.0379 16.8332 16.0272 16.7997L15.9649 16.6006L16.0032 16.5705L16.1798 16.6827C16.2096 16.7016 16.245 16.7098 16.2801 16.7059C16.3152 16.702 16.3479 16.6863 16.3729 16.6613L16.6616 16.3726C16.6866 16.3476 16.7023 16.3149 16.7062 16.2798C16.7101 16.2447 16.7019 16.2093 16.6829 16.1795L16.5703 16.0029C16.5801 15.9903 16.5905 15.9777 16.6004 15.9646L16.7994 16.0269C16.833 16.0376 16.8692 16.0365 16.902 16.0238C16.9348 16.0111 16.9623 15.9875 16.9799 15.9569L17.1844 15.6026C17.2021 15.5721 17.2088 15.5365 17.2035 15.5017C17.1981 15.4668 17.181 15.4349 17.1549 15.4112L17.0018 15.2706C17.0083 15.2553 17.0144 15.24 17.0204 15.2247L17.2287 15.2334C17.264 15.2349 17.2986 15.2243 17.3271 15.2034C17.3555 15.1826 17.376 15.1526 17.3851 15.1186L17.4907 14.7237C17.4997 14.6898 17.4969 14.6538 17.4827 14.6217C17.4684 14.5895 17.4437 14.5632 17.4125 14.5471L17.2265 14.4498C17.2265 14.4339 17.2304 14.4175 17.2326 14.4011L17.4365 14.3557C17.471 14.3482 17.5018 14.3291 17.5239 14.3017C17.546 14.2742 17.558 14.24 17.5579 14.2048V13.7957C17.5581 13.7606 17.5462 13.7265 17.5243 13.6991C17.5025 13.6716 17.4719 13.6525 17.4376 13.6448Z" fill="white"/>
<path d="M14.6721 14.0001C14.6732 14.0129 14.6732 14.0257 14.6721 14.0384C14.6711 14.0736 14.6667 14.1085 14.659 14.1429C14.6483 14.1926 14.6317 14.2408 14.6097 14.2867C14.5917 14.3251 14.5701 14.3617 14.5452 14.3961C14.5153 14.4364 14.4808 14.4731 14.4424 14.5054C14.4178 14.5275 14.3912 14.5472 14.3631 14.5645C14.3204 14.592 14.2745 14.6142 14.2264 14.6307C14.1787 14.6485 14.1289 14.6601 14.0782 14.6651C14.0281 14.6717 13.9773 14.6717 13.9272 14.6651C13.8874 14.6611 13.848 14.6533 13.8097 14.6416C13.761 14.6275 13.7143 14.6073 13.6708 14.5815C13.6379 14.5631 13.6068 14.5419 13.5778 14.518C13.5382 14.4861 13.5027 14.4494 13.4722 14.4086C13.4446 14.3749 13.4207 14.3383 13.4011 14.2993C13.3783 14.2538 13.3612 14.2057 13.3503 14.156C13.3405 14.1177 13.3348 14.0785 13.3333 14.039C13.3322 14.0262 13.3322 14.0134 13.3333 14.0007C13.3335 13.9626 13.3368 13.9245 13.3432 13.8869C13.3484 13.8528 13.3571 13.8193 13.3689 13.7868C13.3843 13.7385 13.406 13.6923 13.4334 13.6496C13.4518 13.6179 13.4734 13.5882 13.4979 13.561C13.5312 13.5224 13.5688 13.4879 13.6101 13.4582C13.6885 13.4012 13.7782 13.3615 13.8731 13.3417C13.8922 13.3384 13.9103 13.3357 13.9278 13.3335C13.9453 13.3313 13.9776 13.3291 14.0033 13.3291C14.029 13.3291 14.0541 13.3291 14.0787 13.3335C14.1089 13.3362 14.1387 13.3417 14.1679 13.3499C14.2174 13.3619 14.2652 13.3802 14.3101 13.4046C14.3467 13.4229 14.3814 13.4451 14.4134 13.4707C14.4545 13.5008 14.4912 13.5364 14.5228 13.5763C14.5457 13.6024 14.5658 13.6308 14.5829 13.6611C14.609 13.7045 14.6298 13.751 14.6447 13.7994C14.6542 13.8282 14.6613 13.8576 14.6661 13.8875C14.6711 13.9248 14.6731 13.9625 14.6721 14.0001Z" fill="#3E436D"/>
<path d="M14.6721 14.0001C14.6732 14.0129 14.6732 14.0257 14.6721 14.0384C14.6711 14.0736 14.6667 14.1085 14.659 14.1429C14.6483 14.1926 14.6317 14.2408 14.6097 14.2867C14.5917 14.3251 14.5701 14.3617 14.5452 14.3961C14.5153 14.4364 14.4808 14.4731 14.4424 14.5054C14.4178 14.5275 14.3912 14.5472 14.3631 14.5645C14.3204 14.592 14.2745 14.6142 14.2264 14.6307C14.1787 14.6485 14.1289 14.6601 14.0782 14.6651C14.0281 14.6717 13.9773 14.6717 13.9272 14.6651C13.8874 14.6611 13.848 14.6533 13.8097 14.6416C13.761 14.6275 13.7143 14.6073 13.6708 14.5815C13.6379 14.5631 13.6068 14.5419 13.5778 14.518C13.5382 14.4861 13.5027 14.4494 13.4722 14.4086C13.4446 14.3749 13.4207 14.3383 13.4011 14.2993C13.3783 14.2538 13.3612 14.2057 13.3503 14.156C13.3405 14.1177 13.3348 14.0785 13.3333 14.039C13.3322 14.0262 13.3322 14.0134 13.3333 14.0007C13.3335 13.9626 13.3368 13.9245 13.3432 13.8869C13.3484 13.8528 13.3571 13.8193 13.3689 13.7868C13.3843 13.7385 13.406 13.6923 13.4334 13.6496C13.4518 13.6179 13.4734 13.5882 13.4979 13.561C13.5312 13.5224 13.5688 13.4879 13.6101 13.4582C13.6885 13.4012 13.7782 13.3615 13.8731 13.3417C13.8922 13.3384 13.9103 13.3357 13.9278 13.3335C13.9453 13.3313 13.9776 13.3291 14.0033 13.3291C14.029 13.3291 14.0541 13.3291 14.0787 13.3335C14.1089 13.3362 14.1387 13.3417 14.1679 13.3499C14.2174 13.3619 14.2652 13.3802 14.3101 13.4046C14.3467 13.4229 14.3814 13.4451 14.4134 13.4707C14.4545 13.5008 14.4912 13.5364 14.5228 13.5763C14.5457 13.6024 14.5658 13.6308 14.5829 13.6611C14.609 13.7045 14.6298 13.751 14.6447 13.7994C14.6542 13.8282 14.6613 13.8576 14.6661 13.8875C14.6711 13.9248 14.6731 13.9625 14.6721 14.0001Z" fill="#3E436D"/>
<path d="M13.0706 14.038H11.1954C11.1752 14.038 11.1559 14.03 11.1416 14.0157C11.1274 14.0015 11.1194 13.9821 11.1194 13.962C11.1194 13.9418 11.1274 13.9225 11.1416 13.9082C11.1559 13.894 11.1752 13.886 11.1954 13.886H13.075C13.0713 13.9238 13.0699 13.9618 13.0706 13.9997V14.038Z" fill="#3E436D"/>
<path d="M13.1563 14.3963L11.4265 15.0935C11.4177 15.097 11.4082 15.0989 11.3987 15.099C11.381 15.099 11.3639 15.0929 11.3502 15.0817C11.3366 15.0705 11.3273 15.0548 11.3239 15.0375C11.3205 15.0201 11.3233 15.0022 11.3318 14.9866C11.3402 14.9711 11.3538 14.959 11.3702 14.9525L13.1038 14.2546C13.1175 14.3032 13.1351 14.3505 13.1563 14.3963Z" fill="#3E436D"/>
<path d="M11.363 12.8973C11.3707 12.8788 11.3854 12.864 11.4039 12.8561C11.4224 12.8483 11.4432 12.8479 11.4619 12.8552L13.1846 13.5492C13.1597 13.5934 13.1386 13.6397 13.1217 13.6875L11.4056 12.9963C11.3869 12.9887 11.3719 12.9741 11.3639 12.9556C11.3559 12.937 11.3556 12.9161 11.363 12.8973Z" fill="#3E436D"/>
<path d="M13.3898 14.7048L12.0566 16.037C12.0494 16.0443 12.0409 16.0501 12.0315 16.054C12.0221 16.058 12.0121 16.06 12.0019 16.0599C11.9868 16.0599 11.972 16.0555 11.9595 16.0472C11.9469 16.0388 11.9371 16.0269 11.9313 16.013C11.9254 15.9991 11.9238 15.9838 11.9267 15.969C11.9295 15.9542 11.9366 15.9406 11.9472 15.9298L13.281 14.5959C13.3141 14.6352 13.3505 14.6716 13.3898 14.7048Z" fill="#3E436D"/>
<path d="M11.9763 12.0425C11.9689 12.0355 11.9629 12.027 11.9588 12.0176C11.9547 12.0082 11.9526 11.998 11.9526 11.9878C11.9526 11.9775 11.9547 11.9674 11.9588 11.958C11.9629 11.9486 11.9689 11.9401 11.9763 11.9331C11.9906 11.9191 12.0097 11.9113 12.0297 11.9113C12.0496 11.9113 12.0688 11.9191 12.083 11.9331L13.4185 13.2686C13.3793 13.3002 13.3427 13.335 13.3091 13.3725L11.9763 12.0425Z" fill="#3E436D"/>
<path d="M13.5695 14.8267C13.614 14.8507 13.6607 14.8705 13.7089 14.8857L13.0221 16.5909C13.0162 16.6049 13.0064 16.617 12.9937 16.6254C12.9811 16.6339 12.9662 16.6384 12.951 16.6385C12.9412 16.6382 12.9316 16.6363 12.9225 16.633C12.904 16.6251 12.8892 16.6103 12.8814 16.5917C12.8737 16.5731 12.8735 16.5522 12.881 16.5335L13.5695 14.8267Z" fill="#3E436D"/>
<path d="M12.9167 11.3872C12.912 11.3778 12.9093 11.3676 12.9088 11.3571C12.9083 11.3466 12.91 11.3361 12.9137 11.3263C12.9175 11.3165 12.9233 11.3076 12.9307 11.3002C12.9381 11.2928 12.9469 11.2869 12.9567 11.2831C12.9665 11.2793 12.9769 11.2776 12.9874 11.278C12.9979 11.2785 13.0082 11.2811 13.0176 11.2858C13.027 11.2904 13.0353 11.297 13.0421 11.305C13.0488 11.3131 13.0538 11.3224 13.0567 11.3325L13.7676 13.0984C13.7185 13.1107 13.6705 13.1274 13.6243 13.1482L12.9167 11.3872Z" fill="#3E436D"/>
<path d="M14.0008 13.0702C13.9751 13.0702 13.9499 13.0702 13.9253 13.0729V11.195C13.9253 11.175 13.9332 11.1558 13.9474 11.1416C13.9616 11.1275 13.9807 11.1195 14.0008 11.1195C14.0208 11.1195 14.04 11.1275 14.0541 11.1416C14.0683 11.1558 14.0762 11.175 14.0762 11.195V13.0702C14.0516 13.0702 14.0265 13.0702 14.0008 13.0702Z" fill="#3E436D"/>
<path d="M14.0008 14.9324C14.0265 14.9324 14.0516 14.9324 14.0762 14.9297V16.8049C14.0762 16.8249 14.0683 16.8441 14.0541 16.8583C14.04 16.8724 14.0208 16.8804 14.0008 16.8804C13.9807 16.8804 13.9616 16.8724 13.9474 16.8583C13.9332 16.8441 13.9253 16.8249 13.9253 16.8049V14.9297C13.9499 14.9297 13.9751 14.9324 14.0008 14.9324Z" fill="#3E436D"/>
<path d="M14.4056 13.1593C14.3599 13.1374 14.3125 13.1191 14.2639 13.1046L14.9787 11.3305C14.9815 11.3203 14.9865 11.3108 14.9933 11.3027C15 11.2945 15.0084 11.2878 15.0179 11.2831C15.0273 11.2783 15.0377 11.2756 15.0483 11.2751C15.0589 11.2746 15.0695 11.2763 15.0794 11.2802C15.0892 11.284 15.0982 11.2898 15.1057 11.2974C15.1132 11.3049 15.119 11.3138 15.1228 11.3237C15.1266 11.3336 15.1283 11.3442 15.1278 11.3548C15.1273 11.3654 15.1245 11.3758 15.1198 11.3852L14.4056 13.1593Z" fill="#3E436D"/>
<path d="M15.1545 16.5335C15.1584 16.5428 15.1603 16.5528 15.1602 16.5628C15.1602 16.5729 15.1582 16.5828 15.1542 16.5921C15.1503 16.6013 15.1446 16.6097 15.1374 16.6167C15.1303 16.6238 15.1218 16.6293 15.1124 16.633C15.1033 16.6365 15.0937 16.6384 15.084 16.6385C15.0689 16.6384 15.0542 16.6338 15.0417 16.6254C15.0293 16.6169 15.0196 16.6049 15.014 16.5909L14.3228 14.8748C14.3703 14.8577 14.4162 14.8365 14.46 14.8114L15.1545 16.5335Z" fill="#3E436D"/>
<path d="M14.5972 13.2829L15.9173 11.9627C15.9318 11.9486 15.9513 11.9408 15.9716 11.941C15.9919 11.9413 16.0112 11.9496 16.0253 11.9641C16.0395 11.9786 16.0473 11.9981 16.047 12.0184C16.0467 12.0386 16.0385 12.058 16.0239 12.0721L14.7049 13.3917C14.6721 13.3525 14.6361 13.3161 14.5972 13.2829Z" fill="#3E436D"/>
<path d="M16.0514 15.9029C16.0659 15.9174 16.0741 15.937 16.0741 15.9576C16.0741 15.9781 16.0659 15.9977 16.0514 16.0122C16.0369 16.0267 16.0173 16.0349 15.9967 16.0349C15.9762 16.0349 15.9566 16.0267 15.9421 16.0122L14.6235 14.6937C14.661 14.6601 14.6958 14.6235 14.7274 14.5844L16.0514 15.9029Z" fill="#3E436D"/>
<path d="M14.8203 13.5625L16.5703 12.8565C16.5885 12.8514 16.608 12.8532 16.6248 12.8617C16.6417 12.8701 16.6549 12.8846 16.6617 12.9022C16.6685 12.9198 16.6686 12.9393 16.6618 12.957C16.655 12.9746 16.6419 12.9891 16.625 12.9975L14.875 13.7019C14.8611 13.6539 14.8428 13.6072 14.8203 13.5625Z" fill="#3E436D"/>
<path d="M16.7076 15.0516C16.7018 15.0654 16.6922 15.0774 16.6797 15.0858C16.6673 15.0943 16.6526 15.0989 16.6376 15.0991C16.6277 15.0989 16.6179 15.0971 16.6086 15.0937L14.8499 14.3827C14.8704 14.3365 14.8875 14.2888 14.9007 14.24L16.666 14.9509C16.6754 14.9548 16.6839 14.9604 16.6911 14.9676C16.6983 14.9747 16.704 14.9832 16.7078 14.9926C16.7117 15.0019 16.7137 15.012 16.7136 15.0221C16.7136 15.0322 16.7115 15.0422 16.7076 15.0516Z" fill="#3E436D"/>
<path d="M16.8822 13.9618C16.8822 13.9821 16.8742 14.0016 16.8598 14.0159C16.8455 14.0303 16.826 14.0383 16.8057 14.0383H14.9304C14.9304 14.0258 14.9304 14.0126 14.9304 14.0001C14.9303 13.962 14.9279 13.924 14.9233 13.8863H16.8029C16.8132 13.8859 16.8234 13.8875 16.8329 13.8911C16.8425 13.8947 16.8512 13.9001 16.8586 13.9072C16.866 13.9142 16.8719 13.9227 16.876 13.9321C16.8801 13.9415 16.8822 13.9516 16.8822 13.9618Z" fill="#3E436D"/>
</g>
<defs>
<clipPath id="clip0">
<rect width="28" height="28" fill="white"/>
</clipPath>
</defs>
</svg>
