<svg xmlns="http://www.w3.org/2000/svg" width="30" height="30" viewBox="0 0 48 48"><title>8-Medical report</title><g id="_8-Medical_report" data-name="8-Medical report"><path d="M12,11H36a1,1,0,0,0,0-2H35V7a2,2,0,0,0-2-2H29.917A6,6,0,0,0,18.083,5H15a2,2,0,0,0-2,2V9H12a1,1,0,0,0,0,2Zm3-4h4a1,1,0,0,0,1-1,4,4,0,0,1,8,0,1,1,0,0,0,1,1h4V9H15Z"/><path d="M9,14V42a2,2,0,0,0,2,2H37a2,2,0,0,0,2-2V14a1,1,0,0,0-1-1H10A1,1,0,0,0,9,14Zm2,1H37V42H11Z"/><path d="M25,5H23a1,1,0,0,0,0,2h2a1,1,0,0,0,0-2Z"/><path d="M34,34H30.414l-3.707-3.707a1,1,0,0,0-1.414,0L20,35.586l-2.293-2.293A1,1,0,0,0,17,33H14a1,1,0,0,0,0,2h2.586l2.707,2.707a1,1,0,0,0,1.414,0L26,32.414l3.293,3.293A1,1,0,0,0,30,36h4a1,1,0,0,0,0-2Z"/><path d="M39,6a1,1,0,0,0,0,2,2,2,0,0,1,2,2V44a2,2,0,0,1-2,2H9a2,2,0,0,1-2-2V10A2,2,0,0,1,9,8,1,1,0,0,0,9,6a4,4,0,0,0-4,4V44a4,4,0,0,0,4,4H39a4,4,0,0,0,4-4V10A4,4,0,0,0,39,6Z"/><path d="M16,24h6a2,2,0,0,0,2-2V20a2,2,0,0,0-2-2H16a2,2,0,0,0-2,2v2A2,2,0,0,0,16,24Zm0-4h6v2l-6,0Z"/><path d="M27,22h3v3a1,1,0,0,0,2,0V21a1,1,0,0,0-1-1H27a1,1,0,0,0,0,2Z"/><path d="M15,28h8a1,1,0,0,0,0-2H15a1,1,0,0,0,0,2Z"/></g></svg>