<svg width="24" height="24" viewBox="0 0 24 24" fill="none" xmlns="http://www.w3.org/2000/svg">
<g clip-path="url(#clip0)">
<path d="M10.5691 0C4.74145 0 0 4.74145 0 10.5691C0 16.3971 4.74145 21.1382 10.5691 21.1382C16.3971 21.1382 21.1382 16.3971 21.1382 10.5691C21.1382 4.74145 16.3971 0 10.5691 0ZM10.5691 19.187C5.81723 19.187 1.95122 15.321 1.95122 10.5691C1.95122 5.81728 5.81723 1.95122 10.5691 1.95122C15.321 1.95122 19.187 5.81723 19.187 10.5691C19.187 15.321 15.321 19.187 10.5691 19.187Z" fill="black"/>
<path d="M23.714 22.3347L18.1205 16.7412C17.7393 16.36 17.1221 16.36 16.7409 16.7412C16.3598 17.122 16.3598 17.7399 16.7409 18.1207L22.3344 23.7142C22.525 23.9048 22.7745 24.0001 23.0242 24.0001C23.2736 24.0001 23.5234 23.9048 23.714 23.7142C24.0951 23.3334 24.0951 22.7155 23.714 22.3347Z" fill="black"/>
</g>
<defs>
<clipPath id="clip0">
<rect width="24" height="24" fill="white"/>
</clipPath>
</defs>
</svg>
